<svg xmlns="http://www.w3.org/2000/svg" width="30" height="24" viewBox="0 0 30 24">
  <g id="Group_63068" data-name="Group 63068" transform="translate(-430.353 -248)">
    <g id="dollar" transform="translate(430.353 173.376)">
      <path id="Conture_16598" data-name="Conture 16598" d="M275.26,317.919v3.087c0,1.048-2.8,1.922-6.232,1.922s-6.174-.845-6.174-1.893v-.349l-.058-2.446h.029c.466.9,3.029,1.6,6.115,1.6s6.261-.874,6.261-1.922h.058Z" transform="translate(-248.148 -225.956)" fill="#e2a63b"/>
      <path id="Conture_16599" data-name="Conture 16599" d="M158.347,112.074v3.058h-.058c0,1.078-2.883,1.922-6.29,1.922a14.946,14.946,0,0,1-3.931-.437l-.058.058a6.8,6.8,0,0,0-2.155-1.194v-.058l-.087-3.232c.2.99,2.912,1.776,6.2,1.776s6.319-.845,6.319-1.893Z" transform="translate(-137.642 -31.585)" fill="#f4b844"/>
      <path id="Conture_16600" data-name="Conture 16600" d="M158.348,80.547h0c0,1.048-2.883,1.893-6.319,1.893S146,81.654,145.8,80.664c0-.029-.029-.087-.029-.116,0-1.048,2.8-1.922,6.261-1.922C155.494,78.6,158.348,79.47,158.348,80.547Z" transform="translate(-137.643)" fill="#fedb41"/>
      <path id="Conture_16601" data-name="Conture 16601" d="M261.838,266.933h0l-.029-.641-.058-2.621c.2.99,2.912,1.776,6.2,1.776s6.2-.844,6.29-1.864h.029v3.029h-.058c0,1.048-2.825,1.922-6.261,1.922S262.3,267.836,261.838,266.933Z" transform="translate(-247.161 -174.65)" fill="#f4b844"/>
      <path id="Conture_16602" data-name="Conture 16602" d="M188.608,313.284a6.249,6.249,0,0,0,1.718-2.679h.146c.641.058,1.281.087,1.98.087h.291v.641l.058,2.446h-.32a15.088,15.088,0,0,1-3.786-.408Z" transform="translate(-178.095 -219.05)" fill="#e2a63b"/>
      <path id="Conture_16603" data-name="Conture 16603" d="M222.372,254.56v.146l.058,2.708h-.291c-.728,0-1.4-.029-2.038-.087h-.146a5.976,5.976,0,0,0,.291-1.893,5.893,5.893,0,0,0-.146-1.252h.146c.612.058,1.223.087,1.893.087l.262.146A.317.317,0,0,0,222.372,254.56Z" transform="translate(-207.695 -165.771)" fill="#f4b844"/>
      <path id="Conture_16604" data-name="Conture 16604" d="M186.055,168.416a14.946,14.946,0,0,0,3.931.437c3.407,0,6.29-.845,6.29-1.922h.058v3.436c-3.174,0-5.766.757-6.086,1.718l-.262-.146q-.961,0-1.835-.087h-.146A5.878,5.878,0,0,0,186,168.445Z" transform="translate(-175.63 -83.384)" fill="#e2a63b"/>
      <g id="Group_63004" data-name="Group 63004" transform="translate(0 83.488)">
        <path id="Conture_16605" data-name="Conture 16605" d="M12.435,170.863h0a6.374,6.374,0,0,0-2.068-3.465,5.534,5.534,0,0,0-2.213-1.223,5.625,5.625,0,0,0-1.835-.291A6.261,6.261,0,1,0,6.2,178.405a6.388,6.388,0,0,0,4.31-1.66,6.324,6.324,0,0,0,1.747-2.767,5.8,5.8,0,0,0,.291-1.864C12.551,171.707,12.435,171.27,12.435,170.863Z" transform="translate(0 -165.883)" fill="#fedb41"/>
        <path id="Conture_16606" data-name="Conture 16606" d="M274.244,230.474v.058c-.087,1.019-2.912,1.864-6.29,1.864s-6-.786-6.2-1.776v-.146a.37.37,0,0,1,.029-.175c.32-.961,2.912-1.718,6.086-1.718h.087C271.39,228.581,274.244,229.425,274.244,230.474Z" transform="translate(-247.161 -225.086)" fill="#fedb41"/>
      </g>
      <path id="Conture_16607" data-name="Conture 16607" d="M77.347,199.48a.961.961,0,1,1,.961-.961.582.582,0,1,0,1.165,0,2.149,2.149,0,0,0-1.543-2.038v-.233a.582.582,0,1,0-1.165,0v.233a2.034,2.034,0,0,0-1.543,2.038,2.138,2.138,0,0,0,2.126,2.126.961.961,0,0,1,0,1.922h0a.97.97,0,0,1-.961-.961.582.582,0,1,0-1.165,0,2.123,2.123,0,0,0,1.543,2.038v.466a.582.582,0,0,0,1.165,0v-.466a2.1,2.1,0,0,0,1.427-2.65A2.123,2.123,0,0,0,77.347,199.48Z" transform="translate(-71.027 -110.517)" fill="#e2a63b"/>
    </g>
  </g>
</svg>
