<svg xmlns="http://www.w3.org/2000/svg" width="30" height="26" viewBox="0 0 30 26">
  <g id="Group_63067" data-name="Group 63067" transform="translate(-437 -197)">
    <g id="actress" transform="translate(393.755 199)">
      <g id="Group_62991" data-name="Group 62991" transform="translate(43.245 0)">
        <g id="Group_62971" data-name="Group 62971" transform="translate(4.999 9.712)">
          <path id="Conture_16570" data-name="Conture 16570" d="M152.712,211.38a.53.53,0,0,0,.529-.53v-1.3a3.339,3.339,0,0,1-1.9-2.171l-.01-.034h-.853a1.153,1.153,0,0,1-.592-.163v.267a4.625,4.625,0,0,0,2.179,3.928Z" transform="translate(-149.892 -207.185)" fill="#883f2e"/>
        </g>
        <g id="Group_62972" data-name="Group 62972" transform="translate(4.999 9.766)">
          <path id="Conture_16571" data-name="Conture 16571" d="M151.341,208.642c-.015-.046-.028-.092-.041-.138h-.817a1.2,1.2,0,0,1-.592-.155v.213A4.624,4.624,0,0,0,152,212.443h.714a.482.482,0,0,0,.411-.231A4.62,4.62,0,0,1,151.341,208.642Z" transform="translate(-149.891 -208.349)" fill="#6d3326"/>
        </g>
        <g id="Group_62980" data-name="Group 62980" transform="translate(2.729)">
          <g id="Group_62973" data-name="Group 62973" transform="translate(0 13.86)">
            <path id="Conture_16572" data-name="Conture 16572" d="M115.718,305.817h-14a.241.241,0,0,1-.241-.241v-8.45a1.449,1.449,0,0,1,1.449-1.449h11.59a1.449,1.449,0,0,1,1.449,1.449v8.45A.241.241,0,0,1,115.718,305.817Z" transform="translate(-101.473 -295.677)" fill="#d88a55"/>
          </g>
          <g id="Group_62974" data-name="Group 62974" transform="translate(0 13.86)">
            <path id="Conture_16573" data-name="Conture 16573" d="M102.679,305.576v-8.45a1.449,1.449,0,0,1,1.449-1.449h-1.207a1.449,1.449,0,0,0-1.449,1.449v8.45a.241.241,0,0,0,.241.241h1.207A.241.241,0,0,1,102.679,305.576Z" transform="translate(-101.472 -295.677)" fill="#c57a44"/>
          </g>
          <g id="Group_62975" data-name="Group 62975" transform="translate(1.28 13.86)">
            <path id="Conture_16574" data-name="Conture 16574" d="M140.7,301.76a2.554,2.554,0,0,0-.99-2.021v-4.063h-9.948v4.063a2.558,2.558,0,0,0,0,4.042l.483,2.035h8.982l.483-2.035A2.554,2.554,0,0,0,140.7,301.76Z" transform="translate(-128.772 -295.676)" fill="#fd4755"/>
          </g>
          <g id="Group_62976" data-name="Group 62976" transform="translate(1.28 13.86)">
            <path id="Conture_16575" data-name="Conture 16575" d="M130.244,301.761a2.55,2.55,0,0,1,.775-1.833.729.729,0,0,0,.215-.524v-3.727h-1.473v4.063a2.558,2.558,0,0,0,0,4.042l.483,2.035h1.473l-.428-1.8a.709.709,0,0,0-.209-.361A2.551,2.551,0,0,1,130.244,301.761Z" transform="translate(-128.771 -295.677)" fill="#fb2b3a"/>
          </g>
          <path id="Conture_16576" data-name="Conture 16576" d="M195.812,258.587V257.27a3.312,3.312,0,0,1-1.363.293h-.615a3.313,3.313,0,0,1-1.363-.293v1.317a.483.483,0,0,1-.483.483H191.1l2.818,7.133a.241.241,0,0,0,.449,0l2.818-7.133H196.3A.483.483,0,0,1,195.812,258.587Z" transform="translate(-186.898 -245.21)" fill="#d88a55"/>
          <g id="Group_62977" data-name="Group 62977" transform="translate(4.201 12.112)">
            <path id="Conture_16577" data-name="Conture 16577" d="M193.435,260.137a.483.483,0,0,0,.483-.483v-.978h-.085a3.367,3.367,0,0,1-1.364-.287v1.265a.483.483,0,0,1-.483.483H191.1l2.818,7.133a.241.241,0,0,0,.449,0l.5-1.265-1.992-5.042A.6.6,0,0,1,193.435,260.137Z" transform="translate(-191.098 -258.389)" fill="#c57a44"/>
          </g>
          <g id="Group_62978" data-name="Group 62978" transform="translate(4.598 14.865)"><path id="Conture_16578" data-name="Conture 16578" d="M201.158,317.483l-1.589-.366.313.793,1.118.258a.352.352,0,0,0,.158-.685Z" transform="translate(-199.569 -317.117)" fill="#f6a96c"/>
            <path id="Conture_16579" data-name="Conture 16579" d="M273.643,321.667l-.662.153a.352.352,0,1,0,.158.685l.5-.116Z" transform="translate(-269.28 -321.454)" fill="#f6a96c"/>
          </g>
          <g id="Group_62979" data-name="Group 62979" transform="translate(2.27)">
            <path id="Conture_16580" data-name="Conture 16580" d="M150.483,6.857h.75l.006-.039a1.155,1.155,0,0,1,.569-.822l2.56-1.463a1.162,1.162,0,0,1,.576-.153h2.16a1.4,1.4,0,0,1,1.4,1.4V6.857h.741a1.153,1.153,0,0,1,.592.163V4.974a4.974,4.974,0,0,0-9.948,0V7.019a1.153,1.153,0,0,1,.592-.163Z" transform="translate(-149.891 0)" fill="#883f2e"/>
            <path id="Conture_16581" data-name="Conture 16581" d="M150.483,6.81h.71a1.208,1.208,0,0,1,.147-.413V4.974a4.975,4.975,0,0,1,4.25-4.921,4.976,4.976,0,0,0-5.7,4.921V6.965A1.2,1.2,0,0,1,150.483,6.81Z" transform="translate(-149.891 0)" fill="#6d3326"/>
          </g>
        </g>
        <path id="Conture_16582" data-name="Conture 16582" d="M294.646,207.313l-.046.012.012.046a.749.749,0,0,1-1.3.67l-.045-.055-.033.063a3.332,3.332,0,0,1-1.585,1.488v7.472a.241.241,0,0,0,.241.241,3.062,3.062,0,0,0,3.062-3.062v-7A1.157,1.157,0,0,1,294.646,207.313Z" transform="translate(-280.001 -197.475)" fill="#883f2e"/>
        <path id="Conture_16583" data-name="Conture 16583" d="M292.833,239.667a3.388,3.388,0,0,1-1.189.878v7.421a.241.241,0,0,0,.241.241,3.057,3.057,0,0,0,.964-.156.24.24,0,0,1-.016-.086Z" transform="translate(-280 -228.433)" fill="#6d3326"/>
        <g id="Group_62990" data-name="Group 62990" transform="translate(0 4.702)">
          <g id="Group_62989" data-name="Group 62989">
            <g id="Group_62982" data-name="Group 62982" transform="translate(17.06 3.034)">
              <g id="Group_62981" data-name="Group 62981">
                <path id="Conture_16584" data-name="Conture 16584" d="M410.009,166.586a1.635,1.635,0,0,0-1.255,1.255.115.115,0,0,1-.218,0,1.635,1.635,0,0,0-1.255-1.255.115.115,0,0,1,0-.218,1.635,1.635,0,0,0,1.255-1.255.115.115,0,0,1,.218,0,1.635,1.635,0,0,0,1.255,1.255A.115.115,0,0,1,410.009,166.586Z" transform="translate(-407.202 -165.034)" fill="#fed402"/>
              </g>
            </g>
            <g id="Group_62984" data-name="Group 62984" transform="translate(17.06 4.048)">
              <g id="Group_62983" data-name="Group 62983">
                <path id="Conture_16585" data-name="Conture 16585" d="M407.949,186.67a2.327,2.327,0,0,1-.669.319.115.115,0,0,0,0,.218,1.635,1.635,0,0,1,1.255,1.255.115.115,0,0,0,.218,0,2.283,2.283,0,0,1,.331-.684A1.569,1.569,0,0,0,407.949,186.67Z" transform="translate(-407.202 -186.67)" fill="#fac600"/>
              </g>
            </g>
            <g id="Group_62986" data-name="Group 62986" transform="translate(0)">
              <g id="Group_62985" data-name="Group 62985">
                <path id="Conture_16586" data-name="Conture 16586" d="M46.053,101.867a1.635,1.635,0,0,0-1.255,1.255.115.115,0,0,1-.218,0,1.635,1.635,0,0,0-1.255-1.255.115.115,0,0,1,0-.218,1.635,1.635,0,0,0,1.255-1.255.115.115,0,0,1,.218,0,1.635,1.635,0,0,0,1.255,1.255A.115.115,0,0,1,46.053,101.867Z" transform="translate(-43.246 -100.315)" fill="#fed402"/>
              </g>
            </g>
            <g id="Group_62988" data-name="Group 62988" transform="translate(0 0.975)">
              <g id="Group_62987" data-name="Group 62987">
                <path id="Conture_16587" data-name="Conture 16587" d="M44.042,121.12a2.191,2.191,0,0,1-.719.358.115.115,0,0,0,0,.218,1.635,1.635,0,0,1,1.255,1.255.115.115,0,0,0,.218,0,2.189,2.189,0,0,1,.358-.719A1.563,1.563,0,0,0,44.042,121.12Z" transform="translate(-43.245 -121.12)" fill="#fac600"/>
              </g>
            </g>
          </g>
        </g>
      </g><path id="Conture_16588" data-name="Conture 16588" d="M392.308,46.13h-.225v-.225a.352.352,0,0,0-.7,0v.225h-.225a.352.352,0,0,0,0,.7h.225v.225a.352.352,0,0,0,.7,0v-.225h.225a.352.352,0,0,0,0-.7Z" transform="translate(-331.267 -43.419)" fill="#fed402"/>
      <path id="Conture_16589" data-name="Conture 16589" d="M86.344,225.521h-.225V225.3a.352.352,0,0,0-.7,0v.225h-.225a.352.352,0,0,0,0,.7h.225v.225a.352.352,0,0,0,.7,0v-.225h.225a.352.352,0,0,0,0-.7Z" transform="translate(-39.645 -214.401)" fill="#fed402"/>
      <g id="Group_62992" data-name="Group 62992" transform="translate(56.733 6.81)">
        <path id="Conture_16590" data-name="Conture 16590" d="M331.869,145.276h-.741v2.209a3.324,3.324,0,0,1-.125.9h.866a1.207,1.207,0,0,0,1.207-1.207v-.7A1.207,1.207,0,0,0,331.869,145.276Z" transform="translate(-331.003 -145.276)" fill="#d88a55"/>
      </g>
      <g id="Group_62994" data-name="Group 62994" transform="translate(56.336 9.296)">
        <g id="Group_62993" data-name="Group 62993" transform="translate(0)">
          <circle id="Эллипс_59" data-name="Эллипс 59" cx="0.797" cy="0.797" r="0.797" fill="#fff"/>
        </g>
      </g>
      <g id="Group_62995" data-name="Group 62995" transform="translate(49.53 4.332)">
        <path id="Conture_16591" data-name="Conture 16591" d="M183.253,92.417h-2.16a1.208,1.208,0,0,0-.6.159l-2.56,1.463a1.207,1.207,0,0,0-.608,1.048V97.1a3.38,3.38,0,0,0,3.38,3.38h.615a3.38,3.38,0,0,0,3.38-3.38V93.866A1.449,1.449,0,0,0,183.253,92.417Z" transform="translate(-177.326 -92.417)" fill="#f6a96c"/>
      </g>
      <path id="Conture_16592" data-name="Conture 16592" d="M138.708,147.485v-2.017a1.152,1.152,0,0,1,.017-.193h-.758a1.207,1.207,0,0,0-1.207,1.207v.7a1.207,1.207,0,0,0,1.207,1.207h.866A3.322,3.322,0,0,1,138.708,147.485Z" transform="translate(-89.132 -138.466)" fill="#c57a44"/>
      <g id="Group_62996" data-name="Group 62996" transform="translate(48.506 9.296)">
        <circle id="Эллипс_60" data-name="Эллипс 60" cx="0.797" cy="0.797" r="0.797" transform="translate(0)" fill="#fff"/>
      </g>
      <g id="Group_62997" data-name="Group 62997" transform="translate(49.53 5.455)">
        <path id="Conture_16593" data-name="Conture 16593" d="M178.805,119.937v-3.49c0-.025,0-.05,0-.074l-.873.5a1.207,1.207,0,0,0-.608,1.048v2.017a3.38,3.38,0,0,0,3.38,3.38h.615a3.4,3.4,0,0,0,.432-.028A3.38,3.38,0,0,1,178.805,119.937Z" transform="translate(-177.326 -116.373)" fill="#d88a55"/>
      </g>
      <g id="Group_63001" data-name="Group 63001" transform="translate(51.195 6.44)">
        <g id="Group_63000" data-name="Group 63000">
          <g id="Group_62998" data-name="Group 62998">
            <path id="Conture_16594" data-name="Conture 16594" d="M213.2,139.016a.352.352,0,0,1-.352-.352v-.922a.352.352,0,1,1,.7,0v.922A.352.352,0,0,1,213.2,139.016Z" transform="translate(-212.851 -137.391)" fill="#883f2e"/>
          </g>
          <g id="Group_62999" data-name="Group 62999" transform="translate(3.342)">
            <path id="Conture_16595" data-name="Conture 16595" d="M284.5,139.016a.352.352,0,0,1-.352-.352v-.922a.352.352,0,0,1,.7,0v.922A.352.352,0,0,1,284.5,139.016Z" transform="translate(-284.149 -137.391)" fill="#883f2e"/>
          </g>
        </g>
      </g>
      <g id="Group_63002" data-name="Group 63002" transform="translate(51.426 9.743)">
        <path id="Conture_16596" data-name="Conture 16596" d="M219.56,209.145a2.374,2.374,0,0,1-1.689-.7.352.352,0,0,1,.5-.5,1.684,1.684,0,0,0,2.384,0,.352.352,0,0,1,.5.5A2.373,2.373,0,0,1,219.56,209.145Z" transform="translate(-217.768 -207.844)" fill="#883f2e"/>
      </g>
      <g id="Group_63003" data-name="Group 63003" transform="translate(52.405 7.323)"><path id="Conture_16597" data-name="Conture 16597" d="M239.48,158.128A.351.351,0,0,1,239.2,158l-.461-.576a.352.352,0,0,1-.01-.426l.461-.634a.352.352,0,0,1,.569.414l-.3.417.293.367a.351.351,0,0,1-.274.571Z" transform="translate(-238.667 -156.215)" fill="#883f2e"/>
      </g>
    </g>
  </g>
</svg>
