<svg xmlns="http://www.w3.org/2000/svg" width="17.298" height="17.298" viewBox="0 0 17.298 17.298">
  <path id="comment-alt-dots" d="M10.2,7.739a.82.82,0,1,0,.82.82A.82.82,0,0,0,10.2,7.739ZM15.938,2H4.46A2.46,2.46,0,0,0,2,4.46v8.2a2.46,2.46,0,0,0,2.46,2.46h9.5L17,18.16a.82.82,0,0,0,.582.238.689.689,0,0,0,.312-.066.82.82,0,0,0,.508-.754V4.46A2.46,2.46,0,0,0,15.938,2Zm.82,13.6-1.878-1.886a.82.82,0,0,0-.582-.238H4.46a.82.82,0,0,1-.82-.82V4.46a.82.82,0,0,1,.82-.82H15.938a.82.82,0,0,1,.82.82ZM6.919,7.739a.82.82,0,1,0,.82.82A.82.82,0,0,0,6.919,7.739Zm6.559,0a.82.82,0,1,0,.82.82A.82.82,0,0,0,13.479,7.739Z" transform="translate(-1.55 -1.55)" fill="#3f3e48" stroke="#fafafa" stroke-width="0.9"/>
</svg>
