<svg xmlns="http://www.w3.org/2000/svg" width="20" height="20.354" viewBox="0 0 20 20.354">
  <g id="Group_124" data-name="Group 124" transform="translate(-4.458)">
    <path id="Konture_51" data-name="Konture 51" d="M155.589,162H148.5a.759.759,0,1,1,0-1.519h7.089a.759.759,0,1,1,0,1.519Z" transform="translate(-137.587 -154.098)" fill="#3f3e48"/>
    <path id="Konture_52" data-name="Konture 52" d="M155.589,238.415H148.5a.759.759,0,1,1,0-1.519h7.089a.759.759,0,1,1,0,1.519Z" transform="translate(-137.587 -227.478)" fill="#3f3e48"/>
    <path id="Konture_53" data-name="Konture 53" d="M155.589,314.832H148.5a.759.759,0,1,1,0-1.519h7.089a.759.759,0,1,1,0,1.519Z" transform="translate(-137.587 -300.857)" fill="#3f3e48"/>
    <path id="Konture_54" data-name="Konture 54" d="M5.876,20.354a.759.759,0,0,1-.7-1.057l1.363-3.2a9.855,9.855,0,0,1-1.4-2.455A10,10,0,1,1,14.458,20a9.709,9.709,0,0,1-3.287-.558l-5.165.9A.734.734,0,0,1,5.876,20.354ZM14.458,1.519a8.486,8.486,0,0,0-7.9,11.572,8.26,8.26,0,0,0,1.436,2.386.76.76,0,0,1,.125.8l-1,2.334,3.989-.7a.755.755,0,0,1,.4.039,8.168,8.168,0,0,0,2.943.531,8.481,8.481,0,0,0,0-16.962Z" fill="#3f3e48"/>
  </g>
</svg>
