<svg id="Facebook_1_" xmlns="http://www.w3.org/2000/svg" width="22" height="22" viewBox="0 0 22 22">
  <g id="Group_62878" data-name="Group 62878" transform="translate(0)">
    <path id="Conture_16600" data-name="Conture 16600" d="M81.306,424.713a10.706,10.706,0,1,1,10.706-10.706A10.717,10.717,0,0,1,81.306,424.713Zm0-20.586a9.879,9.879,0,1,0,9.879,9.879A9.894,9.894,0,0,0,81.306,404.127Z" transform="translate(-70.6 -403.3)" fill="#f1796c"/>
    <g id="Group_62877" data-name="Group 62877" transform="translate(8.179 5.399)">
      <path id="Conture_16601" data-name="Conture 16601" d="M111.278,430.5h-1.861v-1.356c0-.414.437-.505.643-.505h1.195V426.8h-1.379a2.126,2.126,0,0,0-2.321,2.252v1.47H106.2v1.884h1.356v5.1h1.861v-5.1H111Zm0,0" transform="translate(-106.2 -426.8)" fill="#f1796c" fill-rule="evenodd"/>
    </g>
  </g>
</svg>
