<svg xmlns="http://www.w3.org/2000/svg" width="30" height="25" viewBox="0 0 30 25">
  <g id="Group_63073" data-name="Group 63073" transform="translate(-430 -503)">
    <g id="joystick" transform="translate(430 473)">
      <g id="Group_63034" data-name="Group 63034" transform="translate(0 39)">
        <g id="Group_63033" data-name="Group 63033" transform="translate(0)">
          <path id="Conture_16656" data-name="Conture 16656" d="M27.257,193.238c0-.011,0-.022-.007-.033L25.564,185.6a5.6,5.6,0,0,0-8.033-4,9.04,9.04,0,0,1-3.077.955l-.8-.381-.8.381a9.04,9.04,0,0,1-3.078-.955,5.6,5.6,0,0,0-8.033,4s-1.691,7.628-1.693,7.64A3.2,3.2,0,0,0,3.2,197c1.249,0,1.544-.262,4.36-2.768.616-.548,1.371-1.22,2.295-2.032h7.6c.935.822,1.7,1.5,2.316,2.051,2.8,2.489,3.088,2.749,4.339,2.749a3.2,3.2,0,0,0,3.151-3.762Z" transform="translate(0 -181)" fill="#494cd3"/>
        </g>
      </g>
      <g id="Group_63036" data-name="Group 63036" transform="translate(4.853 31)">
        <g id="Group_63035" data-name="Group 63035" transform="translate(0 0)">
          <path id="Conture_16657" data-name="Conture 16657" d="M96.6,47A2.4,2.4,0,1,0,99,49.4,2.4,2.4,0,0,0,96.6,47Zm-2.4-1.6H95a.8.8,0,1,0,0-1.6h-.8V43a.8.8,0,1,0-1.6,0v.8h-.8a.8.8,0,1,0,0,1.6h.8v.8a.8.8,0,1,0,1.6,0Zm4-1.6a.8.8,0,1,0,.8.8A.8.8,0,0,0,98.2,43.8ZM103,47a2.4,2.4,0,1,0,2.4,2.4A2.4,2.4,0,0,0,103,47Zm-2.4-8.8a.8.8,0,0,1,.8-.8h3.2a2.4,2.4,0,0,0,0-4.8H95a.8.8,0,0,1-.8-.8.8.8,0,1,0-1.6,0A2.4,2.4,0,0,0,95,34.2h9.6a.8.8,0,1,1,0,1.6h-3.2A2.4,2.4,0,0,0,99,38.2v2.354a7.048,7.048,0,0,0,1.6,0Zm7.2,5.6H107V43a.8.8,0,1,0-1.6,0v.8h-.8a.8.8,0,0,0,0,1.6h.8v.8a.8.8,0,1,0,1.6,0v-.8h.8a.8.8,0,1,0,0-1.6Zm-7.2.8a.8.8,0,1,0,.8-.8A.8.8,0,0,0,100.6,44.6Z" transform="translate(-91 -31)" fill="#86cbff"/>
        </g>
      </g>
    </g>
  </g>
</svg>
