<svg width="105" height="104" viewBox="0 0 105 104" fill="none" xmlns="http://www.w3.org/2000/svg">
<path d="M52.5954 103.95C81.1991 103.95 104.387 80.762 104.387 52.1584C104.387 23.5547 81.1991 0.366913 52.5954 0.366913C23.9918 0.366913 0.803955 23.5547 0.803955 52.1584C0.803955 80.762 23.9918 103.95 52.5954 103.95Z" fill="#87DCFF"/>
<path d="M58.6263 0.727631L56.4881 7.38931C55.9706 9.00152 54.6741 10.2435 53.0411 10.6912L47.6774 12.1618C47.2457 12.2802 46.7998 12.3402 46.3521 12.3402H38.3261C37.4887 12.3402 36.7808 12.9601 36.6701 13.79L35.7496 20.6936L30.6231 20.9621C29.761 21.0072 29.0754 21.7016 29.041 22.564L28.8636 27.0195C28.8235 28.0227 29.6712 28.8344 30.6716 28.7511L34.087 28.4664C34.9651 28.3932 35.767 27.9384 36.2805 27.2224L39.4392 22.8169L46.1949 22.5755C47.6398 22.5239 48.6607 23.9777 48.1361 25.3251C46.9588 28.3483 46.9572 28.6072 46.9572 28.873C46.9572 29.7966 47.7046 30.5437 48.6279 30.5437C49.4535 30.5437 50.1404 29.9433 50.2741 29.1569C50.3882 28.7719 50.8984 27.4371 51.5665 25.7425C51.8454 25.0348 52.8066 24.9306 53.2258 25.5655L53.6577 26.2191C54.4563 27.4279 55.943 27.9843 57.339 27.5969L60.3222 26.769C61.1537 26.5384 61.8252 25.9246 62.1295 25.1172L62.7016 23.599C63.1056 22.527 64.0308 21.7368 65.1528 21.5051L67.0808 21.1072C68.3928 20.8365 69.7839 21.6297 70.0123 22.9498C70.2456 24.2984 69.298 25.5236 67.9815 25.6745L63.3326 25.7993C62.3872 25.8248 61.6278 26.5865 61.6053 27.5321L61.5948 27.9772C61.5863 28.3347 61.7835 28.6655 62.102 28.8279L64.7753 30.1919C65.7929 30.711 66.1245 32.005 65.4822 32.9498C65.1287 33.4695 64.5412 33.7805 63.9127 33.7805H49.813C49.444 33.7805 49.0782 33.7111 48.7349 33.5758L36.9034 28.9149C36.0278 28.57 35.0322 28.7567 34.3411 29.3954L23.136 39.7517C22.2428 40.5773 21.8687 41.8231 22.1594 43.0042L24.4376 52.2593C24.7893 53.6878 26.0339 54.7182 27.5029 54.7973L40.1266 55.4761C42.6104 55.6096 44.6203 57.5445 44.8485 60.0212L45.8061 70.4173C45.8777 71.195 46.0826 71.9449 46.4203 72.6494C47.484 74.8685 49.9642 79.9127 51.3429 81.6564C53.118 83.9015 57.4913 83.9905 58.9654 82.6484L69.2294 74.2494C70.0872 73.4685 70.6474 72.4143 70.8149 71.2664L72.0174 63.0178L80.1679 54.0356C80.9618 53.1604 80.6053 51.8185 79.5949 51.3849L79.4489 51.4828C78.8306 51.8972 78.1175 52.1484 77.38 52.2138C77.2496 52.2251 77.1191 52.2318 76.9886 52.2318C75.4777 52.2318 74.0763 51.465 73.2622 50.1695L67.0396 40.2888C66.5486 39.5073 66.7834 38.4761 67.5633 37.9835C68.3497 37.4957 69.376 37.729 69.8687 38.5073L76.0913 48.3895C76.305 48.7322 76.6835 48.9182 77.0881 48.8856C77.2659 48.8692 77.4405 48.8073 77.5907 48.7078L86.0017 44.0983C86.8783 43.6178 87.1106 42.4635 86.4877 41.6815C86.1413 41.2468 85.5955 41.0212 85.0434 41.0845L83.2766 41.2876C82.802 41.3422 82.3267 41.1911 81.9707 40.8727L76.6803 36.1402C75.9934 35.5252 75.9347 34.4696 76.5498 33.7811C77.1632 33.0926 78.2188 33.0356 78.9089 33.6506L83.6403 37.8827L86.5152 37.5516C87.1108 37.4781 87.7013 37.7391 88.0554 38.2255L88.6085 38.9825L91.4105 38.6463C92.7722 38.4828 94.0953 39.168 94.7478 40.3744L100.406 50.8365C100.816 51.5955 101.505 52.1665 102.327 52.4293L104.362 53.1442C104.368 52.8153 104.387 52.4891 104.387 52.1588C104.387 25.596 84.3867 3.71697 58.6263 0.727631ZM80.2616 29.3169C79.9761 29.5111 79.6498 29.604 79.3283 29.604C78.7916 29.604 78.2646 29.3463 77.9431 28.8682L74.4629 23.7174C73.9458 22.9539 74.1463 21.9146 74.9117 21.3989C75.6736 20.88 76.7161 21.0841 77.2301 21.8476L80.7103 26.9984C81.2274 27.762 81.0267 28.8012 80.2616 29.3169Z" fill="#BEE86E"/>
<path d="M69.5808 86.9645C40.9771 86.9645 17.7893 63.7767 17.7893 35.173C17.7893 25.2234 20.6006 15.9329 25.464 8.04178C10.6698 17.1597 0.803955 33.5044 0.803955 52.1584C0.803955 80.762 23.9918 103.95 52.5954 103.95C71.2494 103.95 87.5943 94.084 96.7122 79.2896C88.8209 84.1532 79.5306 86.9645 69.5808 86.9645Z" fill="#00C3FF"/>
<path d="M75.1484 79.516C74.7699 79.516 74.3881 79.3872 74.0749 79.1246C73.3684 78.5308 73.277 77.4767 73.871 76.7703L78.2565 71.5494C78.8486 70.8446 79.9043 70.7515 80.6108 71.3455C81.3172 71.9395 81.4087 72.9933 80.8147 73.6998L76.4292 78.9206C76.0994 79.3137 75.6248 79.516 75.1484 79.516Z" fill="#BEE86E"/>
<path d="M38.3474 2.36801L36.861 6.79699C36.5672 7.67157 37.0388 8.6194 37.9134 8.91315C38.0896 8.97182 38.2691 8.99954 38.4453 8.99954C39.1437 8.99954 39.7945 8.55911 40.0296 7.86073L42.1935 1.4131C40.891 1.67833 39.6122 2.00668 38.3474 2.36801Z" fill="#BEE86E"/>
<path d="M9.47769 80.8482L10.9232 67.7154C11.0387 66.6847 10.6689 65.6587 9.92237 64.9387L1.00635 56.6011C1.76461 65.5196 4.77438 73.7938 9.47769 80.8482Z" fill="#AFD755"/>
<path d="M52.5955 0.366943C50.7219 0.366943 48.8732 0.471942 47.051 0.665958L46.877 4.58613C46.4398 5.89953 47.1479 7.31893 48.4613 7.75613C48.7239 7.84413 48.9916 7.885 49.2542 7.885C50.3031 7.885 51.2821 7.22102 51.6313 6.17184L53.5581 0.391221C53.2366 0.385354 52.9184 0.366943 52.5955 0.366943Z" fill="#BEE86E"/>
<path d="M21.2338 39.5602C21.225 39.5602 21.2187 39.5292 21.2206 39.4926C21.2224 39.4559 21.2313 39.4294 21.2408 39.4294C21.2503 39.4294 21.2553 39.4604 21.2534 39.497C21.2515 39.5337 21.2427 39.5602 21.2338 39.5602Z" fill="white"/>
<path d="M21.1663 40.355C21.1574 40.355 21.1455 40.314 21.1404 40.2605C21.1354 40.2069 21.1373 40.164 21.1467 40.1627C21.1562 40.1615 21.1675 40.2043 21.1726 40.2573C21.1776 40.3103 21.1757 40.3544 21.1663 40.355Z" fill="white"/>
<path d="M21.174 40.8458C21.1683 40.8527 21.1462 40.8458 21.124 40.8249C21.1019 40.8041 21.0886 40.7864 21.0943 40.7794C21.1 40.7725 21.1228 40.7794 21.1449 40.7997C21.167 40.8199 21.1803 40.8388 21.174 40.8458Z" fill="white"/>
<path d="M21.426 40.8122C21.4171 40.8122 21.3995 40.7813 21.3869 40.7372C21.3742 40.693 21.3711 40.6558 21.3793 40.6533C21.3875 40.6508 21.4058 40.6842 21.4184 40.7283C21.431 40.7725 21.4348 40.8097 21.426 40.8122Z" fill="white"/>
<path d="M21.2467 41.2631C21.2385 41.2681 21.2114 41.2378 21.1836 41.1956C21.1559 41.1534 21.1433 41.1155 21.1508 41.1111C21.1584 41.1067 21.1855 41.1363 21.2139 41.1786C21.2423 41.2208 21.2543 41.2587 21.2467 41.2631Z" fill="white"/>
<path d="M21.4984 41.2634C21.4895 41.2634 21.4889 41.2318 21.4851 41.2002C21.4813 41.1686 21.4775 41.137 21.4851 41.1332C21.4927 41.1294 21.5135 41.1566 21.5173 41.1964C21.5211 41.2362 21.5072 41.2659 21.4984 41.2634Z" fill="white"/>
<path d="M21.5855 41.781C21.5779 41.7754 21.5906 41.7463 21.6045 41.7109C21.6184 41.6755 21.6285 41.6477 21.638 41.6477C21.6475 41.6477 21.6506 41.6837 21.6348 41.7229C21.619 41.7621 21.5925 41.7861 21.5855 41.781Z" fill="white"/>
<path d="M21.3528 41.6541C21.3478 41.6472 21.3623 41.6263 21.3863 41.608C21.4103 41.5897 21.4337 41.5808 21.4394 41.5878C21.4451 41.5947 21.4299 41.6156 21.4059 41.6339C21.3819 41.6522 21.3585 41.6617 21.3528 41.6541Z" fill="white"/>
<path d="M21.2473 42.1915C21.241 42.1971 21.2176 42.1832 21.1955 42.1592C21.1734 42.1352 21.1607 42.1112 21.1677 42.1049C21.1746 42.0986 21.1974 42.1131 21.2195 42.1371C21.2416 42.1611 21.2543 42.1851 21.2473 42.1915Z" fill="white"/>
</svg>
