<svg xmlns="http://www.w3.org/2000/svg" width="24" height="24" viewBox="0 0 24 24">
  <g id="Group_12817" data-name="Group 12817" transform="translate(-328 -772)">
    <path id="Konture_16574" data-name="Konture 16574" d="M340,772a12.031,12.031,0,1,1-2.341.231A11.951,11.951,0,0,1,340,772Z" fill="#7ee73d"/>
    <g id="Group_12816" data-name="Group 12816">
      <path id="Konture_16576" data-name="Konture 16576" d="M340,778a5.974,5.974,0,0,1,2.3.457,5.9,5.9,0,0,1,1.037.554,5.971,5.971,0,0,1,1.656,1.656,6,6,0,0,1,0,6.666,5.971,5.971,0,0,1-1.656,1.656,6,6,0,0,1-6.666,0,5.971,5.971,0,0,1-1.656-1.656,5.9,5.9,0,0,1-.554-1.037,5.989,5.989,0,0,1,0-4.592,5.9,5.9,0,0,1,.554-1.037,5.971,5.971,0,0,1,1.656-1.656,5.9,5.9,0,0,1,1.037-.554A5.974,5.974,0,0,1,340,778Z" fill="#fff"/>
      <path id="Konture_16578" data-name="Konture 16578" d="M337.256,788.814l-2.759,2.039,1.208-4.223Z" fill="#fff"/>
    </g>
  </g>
</svg>
