<svg xmlns="http://www.w3.org/2000/svg" width="30" height="25" viewBox="0 0 30 25">
  <g id="Group_63070" data-name="Group 63070" transform="translate(-433 -350)">
    <g id="healthcare-covid19-coronavirus-hand-hearth" transform="translate(429.76 347.8)">
      <path id="Conture_16629" data-name="Conture 16629" d="M9.587,21.255,7.706,15.837a1.3,1.3,0,0,0-1.478-.963,1.249,1.249,0,0,0-.947,1.54l1.935,5.975Z" transform="translate(-1.17 -6.815)" fill="#ffac96"/>
      <path id="Conture_16630" data-name="Conture 16630" d="M48.29,21.255l1.881-5.419a1.3,1.3,0,0,1,1.478-.963,1.249,1.249,0,0,1,.947,1.54l-1.935,5.975Z" transform="translate(-26.344 -6.815)" fill="#ffac96"/>
      <path id="Conture_16631" data-name="Conture 16631" d="M12.294,25.842,8.624,23.69a1.243,1.243,0,0,0-1.578.282l-1.34-4.135a1.3,1.3,0,0,0-1.478-.963,1.249,1.249,0,0,0-.947,1.54l1.806,6.739a1.639,1.639,0,0,0,.5.814l2.807,2.5A1.661,1.661,0,0,1,8.953,31.7v1.329h4.983V28.708a3.322,3.322,0,0,0-1.642-2.866Z" transform="translate(0 -9.155)" fill="#ffbcab"/>
      <path id="Conture_16632" data-name="Conture 16632" d="M44.708,18.873a1.3,1.3,0,0,0-1.478.963l-1.341,4.135a1.243,1.243,0,0,0-1.578-.282L36.64,25.842A3.322,3.322,0,0,0,35,28.708v4.325h4.983V31.7a1.661,1.661,0,0,1,.556-1.242l2.807-2.5a1.639,1.639,0,0,0,.5-.814l1.806-6.739a1.249,1.249,0,0,0-.947-1.54Z" transform="translate(-18.573 -9.155)" fill="#ffbcab"/>
      <path id="Conture_16633" data-name="Conture 16633" d="M34,53v3.322h5.813V53H34Z" transform="translate(-17.988 -29.122)" fill="#006df0"/>
      <path id="Conture_16634" data-name="Conture 16634" d="M21.813,53H16v3.322h5.813Z" transform="translate(-7.462 -29.122)" fill="#006df0"/>
      <path id="Conture_16635" data-name="Conture 16635" d="M28.18,9.578l-.295.295L22.6,15.158,17.314,9.873l-.295-.295A3.737,3.737,0,1,1,22.306,4.3l.294.3.295-.295a3.737,3.737,0,1,1,5.286,5.282Z" transform="translate(-7.418 0)" fill="#d80027"/>
      <path id="Conture_16636" data-name="Conture 16636" d="M37,4.3a3.7,3.7,0,0,0-3.059-1.071,3.735,3.735,0,0,1,2.229,6.353l-.295.295L31,14.743l.415.415L36.7,9.873,37,9.578A3.737,3.737,0,0,0,37,4.3Z" transform="translate(-16.233 0)" fill="#bd0022"/>
      <path id="Conture_16637" data-name="Conture 16637" d="M29.322,14.983V13.322h1.661V11.661H29.322V10H27.661v1.661H26v1.661h1.661v1.661Z" transform="translate(-13.31 -3.977)" fill="#f1f2f2"/>
      <g id="Group_63030" data-name="Group 63030" transform="translate(6.757 15.196)">
        <path id="Conture_16638" data-name="Conture 16638" d="M46.632,32.759,43.857,34.3a.36.36,0,1,0,.36.623l2.416-1.329a1.246,1.246,0,0,0,.548-1.5A1.234,1.234,0,0,1,46.632,32.759Z" transform="translate(-30.404 -32.091)" fill="#ffac96"/>
        <path id="Conture_16639" data-name="Conture 16639" d="M12.331,32.759,15.107,34.3a.36.36,0,1,1-.36.623L12.331,33.59a1.246,1.246,0,0,1-.548-1.5,1.234,1.234,0,0,0,.548.668Z" transform="translate(-11.71 -32.091)" fill="#ffac96"/>
      </g>
    </g>
  </g>
</svg>
