<svg width="20" height="19" viewBox="0 0 20 19" fill="none" xmlns="http://www.w3.org/2000/svg">
  <path d="M10.0143 0C8.13835 0 6.30452 0.556286 4.74472 1.59851C3.18492 2.64074 1.9692 4.12209 1.2513 5.85525C0.533407 7.5884 0.345572 9.49552 0.711553 11.3354C1.07753 13.1753 1.98089 14.8654 3.30739 16.1919C4.63389 17.5184 6.32396 18.4218 8.16387 18.7877C10.0038 19.1537 11.9109 18.9659 13.6441 18.248C15.3772 17.5301 16.8586 16.3144 17.9008 14.7546C18.943 13.1948 19.4993 11.361 19.4993 9.485C19.4974 6.96999 18.4975 4.55852 16.7192 2.78014C14.9408 1.00176 12.5293 0.00185404 10.0143 0ZM10.0143 0.862C10.6879 0.862546 11.3591 0.941749 12.0143 1.098L11.3013 3.57C10.454 3.38146 9.57561 3.38146 8.7283 3.57L8.0133 1.1C8.66875 0.942989 9.34031 0.863114 10.0143 0.862ZM7.1853 1.334L7.8993 3.813C7.08726 4.11833 6.34983 4.59363 5.73638 5.20708C5.12293 5.82053 4.64763 6.55796 4.3423 7.37L1.8703 6.656C2.29661 5.42502 2.99632 4.30664 3.91687 3.38488C4.83742 2.46311 5.95488 1.76193 7.1853 1.334ZM12.8443 1.334C14.0745 1.76167 15.1922 2.46186 16.1138 3.38222C17.0354 4.30259 17.737 5.41933 18.1663 6.649L15.6873 7.37C15.3818 6.55789 14.9063 5.82043 14.2927 5.20698C13.6791 4.59354 12.9415 4.11827 12.1293 3.813L12.8443 1.334ZM10.0153 4.291C11.0426 4.291 12.0468 4.59562 12.9009 5.16635C13.7551 5.73707 14.4208 6.54826 14.8139 7.49734C15.2071 8.44642 15.3099 9.49076 15.1095 10.4983C14.9091 11.5058 14.4144 12.4313 13.688 13.1577C12.9616 13.8841 12.0361 14.3788 11.0286 14.5792C10.0211 14.7796 8.97672 14.6768 8.02764 14.2836C7.07856 13.8905 6.26737 13.2248 5.69665 12.3706C5.12592 11.5165 4.8213 10.5123 4.8213 9.485C4.82078 8.80285 4.95473 8.12729 5.2155 7.49695C5.47628 6.86661 5.85876 6.29387 6.34106 5.81147C6.82337 5.32907 7.39604 4.94648 8.02633 4.68559C8.65662 4.42469 9.33215 4.29061 10.0143 4.291H10.0153ZM1.6293 7.478L4.1013 8.192C3.91267 9.04402 3.91267 9.92698 4.1013 10.779L1.6293 11.486C1.31495 10.1685 1.31495 8.79551 1.6293 7.478ZM18.4033 7.478C18.7176 8.79551 18.7176 10.1685 18.4033 11.486L15.9293 10.779C16.118 9.92698 16.118 9.04401 15.9293 8.192L18.4033 7.478ZM4.3423 11.6C4.64683 12.4125 5.12186 13.1503 5.73541 13.7639C6.34896 14.3774 7.08681 14.8525 7.8993 15.157L7.1853 17.629C5.95561 17.2018 4.83862 16.5017 3.91812 15.5812C2.99762 14.6607 2.29751 13.5437 1.8703 12.314L4.3423 11.6ZM15.6873 11.6L18.1663 12.314C17.7372 13.5438 17.0356 14.6606 16.114 15.581C15.1924 16.5014 14.0746 17.2015 12.8443 17.629L12.1293 15.157C12.9417 14.8524 13.6795 14.3773 14.2931 13.7638C14.9066 13.1502 15.3817 12.4124 15.6863 11.6H15.6873ZM8.7213 15.4C9.57332 15.5887 10.4563 15.5887 11.3083 15.4L12.0153 17.872C10.7005 18.1861 9.33013 18.1861 8.0153 17.872L8.7213 15.4Z" fill="#3F3E48"/>
</svg>
