<svg xmlns="http://www.w3.org/2000/svg" width="30" height="25" viewBox="0 0 30 25">
  <g id="Group_63069" data-name="Group 63069" transform="translate(-433 -299)">
    <g id="influencer-2" data-name="influencer" transform="translate(431.666 300)">
      <g id="Group_63041" data-name="Group 63041" transform="translate(19.635 2.161)">
        <path id="Conture_16689" data-name="Conture 16689" d="M396.166,46.109a3.654,3.654,0,0,1-3.243,1.652h-.867l-.306.477v2.323l.306.477h.868a3.654,3.654,0,0,1,3.243,1.651Z" transform="translate(-391.75 -46.109)" fill="#eff3f5"/>
      </g>
      <path id="Conture_16690" data-name="Conture 16690" d="M233.344,80.126l-.386-.572a4.674,4.674,0,0,1-.89.084H231.2l-.2.488v2.344l.2.446h.868a4.677,4.677,0,0,1,.89.084l.386-.529Z" transform="translate(-218.9 -75.825)" fill="#eff3f5"/>
      <g id="Group_63065" data-name="Group 63065" transform="translate(1.334)">
        <g id="Group_63064" data-name="Group 63064" transform="translate(0 0.239)">
          <g id="Group_63063" data-name="Group 63063">
            <g id="Group_63047" data-name="Group 63047" transform="translate(15.722 1.385)">
              <path id="Conture_16691" data-name="Conture 16691" d="M357.72,123.785H356.8a.579.579,0,0,1-.579-.579V119.88h1.493l.581,3.223A.579.579,0,0,1,357.72,123.785Z" transform="translate(-355.304 -115.885)" fill="#a8d0d5"/>
              <g id="Group_63046" data-name="Group 63046">
                <g id="Group_63045" data-name="Group 63045">
                  <g id="Group_63042" data-name="Group 63042" transform="translate(0 0.537)">
                    <path id="Conture_16692" data-name="Conture 16692" d="M485.958,117.5h0v0Z" transform="translate(-478.963 -110.916)" fill="#eff3f5"/>
                    <path id="Conture_16693" data-name="Conture 16693" d="M435.76,51.121a3.442,3.442,0,0,1,2.353,1.568v-6.58a3.442,3.442,0,0,1-2.353,1.568Z" transform="translate(-431.118 -46.109)" fill="#daeaef"/>
                    <path id="Conture_16694" data-name="Conture 16694" d="M339.621,81.342h-1.9a.984.984,0,0,0-.983.984v1.31a.984.984,0,0,0,.984.983h1.9Z" transform="translate(-336.737 -79.69)" fill="#fc8086"/>
                  </g>
                  <g id="Group_63044" data-name="Group 63044" transform="translate(6.611)">
                    <g id="Group_63043" data-name="Group 63043">
                      <path id="Conture_16695" data-name="Conture 16695" d="M478.552,42.307a.77.77,0,0,0,.77-.771V35.423a.771.771,0,1,0-1.541,0v6.113A.771.771,0,0,0,478.552,42.307Z" transform="translate(-477.781 -34.653)" fill="#fc8086"/>
                    </g>
                  </g>
                </g>
              </g>
            </g>
            <g id="Group_63062" data-name="Group 63062">
              <g id="Group_63061" data-name="Group 63061">
                <g id="Group_63059" data-name="Group 63059">
                  <g id="Group_63058" data-name="Group 63058">
                    <g id="Group_63057" data-name="Group 63057">
                      <path id="Conture_16696" data-name="Conture 16696" d="M71.347,11.218l.038-.055v-.7a5.605,5.605,0,0,0-3.362-5.137v0a.126.126,0,0,1-.17.116A5.59,5.59,0,0,0,65.91,5.1a5.524,5.524,0,0,0-5.59,5.208l0,1.183a.15.15,0,0,1-.139.149V19.8h4.5a6.7,6.7,0,0,0,6.7-6.7V11.638l-.036-.062Z" transform="translate(-57.418 -5.098)" fill="#fcb143"/><path id="Conture_16697" data-name="Conture 16697" d="M16.549,237.295a2.782,2.782,0,0,0-1.523-2.481,15.1,15.1,0,0,0-4.1-1.386,1.151,1.151,0,0,1-.941-1.132v-3.115H7.9v2.2a1.151,1.151,0,0,1-.941,1.132,15.1,15.1,0,0,0-4.1,1.386,2.782,2.782,0,0,0-1.523,2.481v5.462a.594.594,0,0,0,.594.594H16.549Z" transform="translate(-1.334 -218.677)" fill="#ffece3"/>
                      <g id="Group_63048" data-name="Group 63048" transform="translate(8.199 10.504)">
                        <path id="Conture_16698" data-name="Conture 16698" d="M183.244,233.9a15.1,15.1,0,0,0-4.1-1.386,1.151,1.151,0,0,1-.941-1.132v-2.2h-1.963v3.459a1.151,1.151,0,0,0,.941,1.132,15.1,15.1,0,0,1,4.1,1.386,2.782,2.782,0,0,1,1.523,2.481v4.8h1.369a.594.594,0,0,0,.594-.594v-5.462A2.782,2.782,0,0,0,183.244,233.9Z" transform="translate(-176.241 -229.181)" fill="#ffddce"/>
                      </g>
                      <path id="Conture_16699" data-name="Conture 16699" d="M16.549,317.5a2.782,2.782,0,0,0-1.523-2.481q-.594-.3-1.207-.547a5.987,5.987,0,0,1-9.151-1.141,15.109,15.109,0,0,0-1.812.775,2.782,2.782,0,0,0-1.523,2.481v5.462a.594.594,0,0,0,.594.594H16.549Z" transform="translate(-1.334 -298.885)" fill="#d5b0ec"/>
                      <path id="Conture_16700" data-name="Conture 16700" d="M262.843,322.883a.594.594,0,0,0,.594-.594v-5.462a2.782,2.782,0,0,0-1.523-2.481,15.112,15.112,0,0,0-1.778-.764,6.018,6.018,0,0,1-1.356,1.488q.594.24,1.172.533a2.782,2.782,0,0,1,1.523,2.481v4.8Z" transform="translate(-246.712 -299.122)" fill="#c995e4"/>
                      <g id="Group_63049" data-name="Group 63049" transform="translate(2.758 5.06)">
                        <path id="Conture_16701" data-name="Conture 16701" d="M254.666,113.041h1.087a1,1,0,0,1,1,1.005v.476a1,1,0,0,1-1,1.005h-1.087Z" transform="translate(-245.549 -113.041)" fill="#ffece3"/>
                        <path id="Conture_16702" data-name="Conture 16702" d="M62.261,113.041H61.181a1,1,0,0,0-1,1.005v.476a1,1,0,0,0,1,1.005h1.081v-2.486Z" transform="translate(-60.176 -113.041)" fill="#ffddce"/>
                      </g>
                      <g id="Group_63056" data-name="Group 63056" transform="translate(4.436 2.697)">
                        <g id="Group_63054" data-name="Group 63054">
                          <g id="Group_63053" data-name="Group 63053">
                            <g id="Group_63052" data-name="Group 63052">
                              <g id="Group_63051" data-name="Group 63051">
                                <g id="Group_63050" data-name="Group 63050">
                                  <path id="Conture_16703" data-name="Conture 16703" d="M103.847,67.691c0,2.616-2.75,4.075-3.939,4.1-1.189-.026-3.934-1.49-3.932-4.106l-.008-5.053,5.776,0v.233a2.123,2.123,0,0,0,2.118,2.125Z" transform="translate(-95.968 -62.631)" fill="#ffece3"/>
                                </g>
                              </g>
                            </g>
                          </g>
                        </g>
                        <g id="Group_63055" data-name="Group 63055" transform="translate(2.953 0.981)">
                          <path id="Conture_16704" data-name="Conture 16704" d="M163.913,84.941a2.123,2.123,0,0,1-1.985-1.382l-.008,4.079a4.393,4.393,0,0,1-2.947,3.867,3.021,3.021,0,0,0,.987.232c1.189-.024,3.937-1.483,3.939-4.1Z" transform="translate(-158.973 -83.559)" fill="#ffddce"/>
                        </g>
                      </g>
                    </g>
                    <path id="Conture_16705" data-name="Conture 16705" d="M60.176,235.109v7.216a3.805,3.805,0,0,0,3.805-3.805v-2.986Z" transform="translate(-57.418 -224.327)" fill="#fcb143"/>
                  </g>
                </g>
                <g id="Group_63060" data-name="Group 63060" transform="translate(2.228 21.775)"><path id="Conture_16706" data-name="Conture 16706" d="M295.866,471.623V470a.362.362,0,1,0-.724,0v1.624Z" transform="translate(-283.598 -469.637)" fill="#bb80e0"/>
                  <path id="Conture_16707" data-name="Conture 16707" d="M49.6,471.623V470a.362.362,0,1,0-.724,0v1.624Z" transform="translate(-48.874 -469.637)" fill="#bb80e0"/>
                </g>
              </g>
              <path id="Conture_16708" data-name="Conture 16708" d="M230.838,383.464l.384.915a.1.1,0,0,0,.088.064l.989.083a.1.1,0,0,1,.06.184l-.751.648a.105.105,0,0,0-.034.1l.227.966a.1.1,0,0,1-.157.114l-.848-.514a.1.1,0,0,0-.109,0l-.848.514a.1.1,0,0,1-.157-.114l.227-.966a.105.105,0,0,0-.034-.1l-.751-.648a.1.1,0,0,1,.06-.184l.989-.083a.1.1,0,0,0,.088-.064l.384-.915A.105.105,0,0,1,230.838,383.464Z" transform="translate(-218.411 -365.666)" fill="#fbe77b"/>
            </g>
          </g>
        </g>
        <path id="Conture_16709" data-name="Conture 16709" d="M65.777,0a5.6,5.6,0,0,0-5.6,5.3h0c-.016.286-.007.356-.009,1.007a1,1,0,0,1,1-1.005h3.188A3.9,3.9,0,0,0,68,1.5c0-2.007.007-.476.016-1.03A5.584,5.584,0,0,0,65.777,0Z" transform="translate(-57.415)" fill="#fa9801"/>
      </g>
    </g>
  </g>
</svg>
