<svg id="LinkedIn_3_" xmlns="http://www.w3.org/2000/svg" width="22" height="22" viewBox="0 0 22 22">
  <g id="LinkedIn_2_" transform="translate(5.88 6.155)">
    <rect id="rect_2729" data-name="rect 2729" width="1.952" height="6.178" transform="translate(0.276 2.917)" fill="#f1796c"/>
    <path id="Conture_16597" data-name="Conture 16597" d="M538.757,442.7a2.021,2.021,0,0,0-1.952,1.034v-.965h-2.2c.023.505,0,6.178,0,6.178h2.2v-3.33a1.645,1.645,0,0,1,.046-.505,1.089,1.089,0,0,1,1.056-.758c.758,0,1.1.574,1.1,1.4v3.192h2.228V445.5C541.215,443.6,540.135,442.7,538.757,442.7Z" transform="translate(-531.224 -439.852)" fill="#f1796c"/>
    <path id="Conture_16598" data-name="Conture 16598" d="M521.094,430.3a1.083,1.083,0,0,0-1.194,1.079,1.072,1.072,0,0,0,1.171,1.057h.023a1.075,1.075,0,1,0,0-2.136Z" transform="translate(-519.9 -430.3)" fill="#f1796c"/>
  </g>
  <path id="Conture_16599" data-name="Conture 16599" d="M505,424.906a10.7,10.7,0,1,1,10.7-10.7A10.713,10.713,0,0,1,505,424.906Zm0-20.579a9.876,9.876,0,1,0,9.876,9.876A9.89,9.89,0,0,0,505,404.327Z" transform="translate(-494.3 -403.5)" fill="#f1796c"/>
</svg>
