<svg width="61" height="60" viewBox="0 0 61 60" fill="none" xmlns="http://www.w3.org/2000/svg">
<circle cx="30.5001" cy="29.9084" r="29.7706" fill="#F3F3F3"/>
<path d="M17.5935 43.9071C17.4526 43.9071 17.3106 43.8799 17.1752 43.8238C16.7666 43.6545 16.5001 43.2558 16.5001 42.8134L16.5007 30.0407C16.4143 17.5348 31.6329 11.1765 40.4495 20.04C49.1725 28.8907 42.8747 43.9181 30.4337 43.9071C28.23 43.9072 26.1262 43.4129 24.1809 42.438C22.3221 41.5065 20.0717 41.8821 18.581 43.3729L18.3671 43.5868C18.1578 43.796 17.8781 43.9071 17.5935 43.9071ZM22.0376 39.7432C23.0996 39.7432 24.168 39.985 25.1609 40.4826C26.8022 41.3053 28.5812 41.7216 30.4461 41.7199C40.9002 41.7352 46.2575 28.9651 38.8953 21.579C31.4275 14.1057 18.6338 19.4585 18.6879 30.0249C18.6879 30.0284 18.688 30.0319 18.688 30.0354L18.6875 40.5927C19.7238 40.0323 20.8767 39.7432 22.0376 39.7432ZM27.2177 29.9086C27.2177 30.6636 26.6057 31.2757 25.8507 31.2757C24.0373 31.2037 24.0378 28.6133 25.8507 28.5416C26.6057 28.5416 27.2177 29.1536 27.2177 29.9086ZM30.5533 28.5416C29.7983 28.5416 29.1862 29.1536 29.1862 29.9086C29.2583 31.722 31.8486 31.7215 31.9203 29.9086C31.9203 29.1536 31.3083 28.5416 30.5533 28.5416ZM35.2559 28.5416C34.5009 28.5416 33.8889 29.1536 33.8889 29.9086C33.9609 31.722 36.5512 31.7215 36.6229 29.9086C36.6229 29.1536 36.0109 28.5416 35.2559 28.5416Z" fill="#E74C3C"/>
</svg>
