<svg width="14" height="13" viewBox="0 0 14 13" fill="none" xmlns="http://www.w3.org/2000/svg">
<path d="M10.8934 0.218559H2.77169C1.56254 0.218559 0.578857 1.20228 0.578857 2.41142V7.4209C0.578857 8.63004 1.56254 9.61372 2.77169 9.61372L7.94476 9.61376L10.4211 12.0901C10.505 12.174 10.6172 12.2186 10.7313 12.2186C10.7878 12.2186 10.8448 12.2076 10.899 12.1851C11.0629 12.1173 11.1698 11.9574 11.1698 11.78V9.59639C12.249 9.46009 13.0862 8.53643 13.0862 7.4209V2.41142C13.0862 1.20228 12.1025 0.218559 10.8934 0.218559ZM12.2091 7.42093C12.2091 8.14642 11.6189 8.73663 10.8934 8.73663H10.7312C10.489 8.73663 10.2927 8.93303 10.2927 9.17519V10.7212L8.43655 8.86508C8.35431 8.7828 8.24281 8.73663 8.12643 8.73663H2.77169C2.04619 8.73663 1.45599 8.14642 1.45599 7.42093V2.41146C1.45599 1.68597 2.04619 1.09576 2.77169 1.09576H10.8934C11.6189 1.09576 12.2091 1.68597 12.2091 2.41146V7.42093Z" fill="white" stroke="white" stroke-width="0.2"/>
<path d="M10.0603 3.32406H3.60458C3.36239 3.32406 3.16602 3.5204 3.16602 3.76262C3.16602 4.00482 3.36239 4.20119 3.60458 4.20119H10.0603C10.3025 4.20119 10.4988 4.00482 10.4988 3.76262C10.4988 3.5204 10.3025 3.32406 10.0603 3.32406Z" fill="white" stroke="white" stroke-width="0.2"/>
<path d="M10.0603 5.78002H3.60458C3.36239 5.78002 3.16602 5.97636 3.16602 6.21859C3.16602 6.46082 3.36239 6.65715 3.60458 6.65715H10.0603C10.3025 6.65715 10.4988 6.46078 10.4988 6.21859C10.4988 5.97639 10.3025 5.78002 10.0603 5.78002Z" fill="white" stroke="white" stroke-width="0.2"/>
</svg>
