<svg width="28" height="26" viewBox="0 0 28 26" fill="none" xmlns="http://www.w3.org/2000/svg">
<g filter="url(#filter0_ddd)">
<path fill-rule="evenodd" clip-rule="evenodd" d="M17.5631 2.65415C16.1614 2.65415 15.0252 3.79043 15.0252 5.1921C15.0252 6.59377 16.1614 7.73005 17.5631 7.73005C18.9648 7.73005 20.101 6.59377 20.101 5.1921C20.101 3.79043 18.9648 2.65415 17.5631 2.65415ZM13.3332 5.1921C13.3332 2.85598 15.227 0.962189 17.5631 0.962189C19.8992 0.962189 21.793 2.85598 21.793 5.1921C21.793 7.52821 19.8992 9.42201 17.5631 9.42201C15.227 9.42201 13.3332 7.52821 13.3332 5.1921Z" fill="white"/>
<path fill-rule="evenodd" clip-rule="evenodd" d="M15.8711 12.8059C15.198 12.8059 14.5525 13.0733 14.0765 13.5493C13.6006 14.0253 13.3332 14.6708 13.3332 15.3439V17.0359C13.3332 17.5031 12.9544 17.8818 12.4872 17.8818C12.02 17.8818 11.6412 17.5031 11.6412 17.0359V15.3439C11.6412 14.2221 12.0869 13.1462 12.8801 12.3529C13.6734 11.5596 14.7493 11.114 15.8711 11.114H19.2551C20.3769 11.114 21.4528 11.5596 22.2461 12.3529C23.0393 13.1462 23.485 14.2221 23.485 15.3439V17.0359C23.485 17.5031 23.1062 17.8818 22.639 17.8818C22.1718 17.8818 21.793 17.5031 21.793 17.0359V15.3439C21.793 14.6708 21.5256 14.0253 21.0497 13.5493C20.5737 13.0733 19.9282 12.8059 19.2551 12.8059H15.8711Z" fill="white"/>
<path d="M11.8777 8.36717C11.8777 7.99852 11.5788 7.69967 11.2102 7.69967H9.05768V5.53967C9.05768 5.15859 8.74876 4.84967 8.36768 4.84967C7.9866 4.84967 7.67768 5.15859 7.67768 5.53967V7.69967H5.54018C5.17153 7.69967 4.87268 7.99852 4.87268 8.36717C4.87268 8.73582 5.17153 9.03467 5.54018 9.03467H7.67768V11.1647C7.67768 11.5457 7.9866 11.8547 8.36768 11.8547C8.74876 11.8547 9.05768 11.5457 9.05768 11.1647V9.03467H11.2102C11.5788 9.03467 11.8777 8.73582 11.8777 8.36717Z" fill="white"/>
</g>
<defs>
<filter id="filter0_ddd" x="0.872681" y="0.962189" width="26.6123" height="24.9197" filterUnits="userSpaceOnUse" color-interpolation-filters="sRGB">
<feFlood flood-opacity="0" result="BackgroundImageFix"/>
<feColorMatrix in="SourceAlpha" type="matrix" values="0 0 0 0 0 0 0 0 0 0 0 0 0 0 0 0 0 0 127 0" result="hardAlpha"/>
<feOffset dy="4"/>
<feGaussianBlur stdDeviation="2"/>
<feComposite in2="hardAlpha" operator="out"/>
<feColorMatrix type="matrix" values="0 0 0 0 0 0 0 0 0 0 0 0 0 0 0 0 0 0 0.25 0"/>
<feBlend mode="normal" in2="BackgroundImageFix" result="effect1_dropShadow"/>
<feColorMatrix in="SourceAlpha" type="matrix" values="0 0 0 0 0 0 0 0 0 0 0 0 0 0 0 0 0 0 127 0" result="hardAlpha"/>
<feOffset dy="4"/>
<feGaussianBlur stdDeviation="2"/>
<feComposite in2="hardAlpha" operator="out"/>
<feColorMatrix type="matrix" values="0 0 0 0 0 0 0 0 0 0 0 0 0 0 0 0 0 0 0.25 0"/>
<feBlend mode="normal" in2="effect1_dropShadow" result="effect2_dropShadow"/>
<feColorMatrix in="SourceAlpha" type="matrix" values="0 0 0 0 0 0 0 0 0 0 0 0 0 0 0 0 0 0 127 0" result="hardAlpha"/>
<feOffset dy="4"/>
<feGaussianBlur stdDeviation="2"/>
<feComposite in2="hardAlpha" operator="out"/>
<feColorMatrix type="matrix" values="0 0 0 0 0 0 0 0 0 0 0 0 0 0 0 0 0 0 0.25 0"/>
<feBlend mode="normal" in2="effect2_dropShadow" result="effect3_dropShadow"/>
<feBlend mode="normal" in="SourceGraphic" in2="effect3_dropShadow" result="shape"/>
</filter>
</defs>
</svg>
