<svg xmlns="http://www.w3.org/2000/svg" width="30" height="26" viewBox="0 0 30 26">
  <g id="Group_63071" data-name="Group 63071" transform="translate(-433 -401)">
    <g id="music-note" transform="translate(433 403)">
      <path id="Conture_16640" data-name="Conture 16640" d="M272,251.36a.7.7,0,1,0,1.406,0v-7.907l-.641-1.223L272,243.855Z" transform="translate(-259.25 -230.875)" fill="#00ccb2"/>
      <path id="Conture_16641" data-name="Conture 16641" d="M482,191.515a.7.7,0,0,0,1.406,0v-7.907l-.668-1.215L482,184.01Z" transform="translate(-459.406 -173.843)" fill="#00ab94"/>
      <path id="Conture_16642" data-name="Conture 16642" d="M98.078,7.828a3.517,3.517,0,0,1-3.516,3.516.7.7,0,0,1,0-1.406,2.112,2.112,0,0,0,1.252-3.811,17.493,17.493,0,0,1-3.408-3.113V14.156a.7.7,0,0,1-1.406,0V.7a.709.709,0,0,1,.492-.675A1.09,1.09,0,0,1,91.7,0a.734.734,0,0,1,.591.309l.8,1.223a14.758,14.758,0,0,0,3.548,3.455A3.543,3.543,0,0,1,98.078,7.828Z" transform="translate(-86.734)" fill="#fea832"/>
      <path id="Conture_16643" data-name="Conture 16643" d="M112.375,7.828a3.517,3.517,0,0,1-3.516,3.516.7.7,0,0,1,0-1.406,2.112,2.112,0,0,0,1.252-3.811A17.493,17.493,0,0,1,106.7,3.014V14.156a.7.7,0,0,1-.7.7V0a.734.734,0,0,1,.591.309l.8,1.223a14.758,14.758,0,0,0,3.548,3.455A3.543,3.543,0,0,1,112.375,7.828Z" transform="translate(-101.031)" fill="#ff8700"/>
      <path id="Conture_16644" data-name="Conture 16644" d="M184.813,397.625a2.813,2.813,0,1,1,2.813-2.812A2.815,2.815,0,0,1,184.813,397.625Z" transform="translate(-173.469 -373.625)" fill="#00eed0"/>
      <path id="Conture_16645" data-name="Conture 16645" d="M4.969,242.97A2.778,2.778,0,0,0,2.859,242a2.813,2.813,0,1,0,0,5.625,2.778,2.778,0,0,0,2.109-.97,2.765,2.765,0,0,0,0-3.684Z" transform="translate(0 -230.656)" fill="#ffd400"/>
      <path id="Conture_16646" data-name="Conture 16646" d="M394.813,337.625a2.813,2.813,0,1,1,2.813-2.812A2.815,2.815,0,0,1,394.813,337.625Z" transform="translate(-373.625 -316.438)" fill="#00ccb2"/>
      <path id="Conture_16647" data-name="Conture 16647" d="M106.7,264.542a2.707,2.707,0,0,1-.7,1.842V262.7A2.707,2.707,0,0,1,106.7,264.542Z" transform="translate(-101.031 -250.386)" fill="#fdbf00"/>
      <path id="Conture_16648" data-name="Conture 16648" d="M282.969,122.214a.739.739,0,0,0-.619-.113l-4.725,1.35-5.119,1.462a.709.709,0,0,0-.506.675v3.741l1.406-.394,4.219-1.209,4.219-1.209,1.406-.394v-3.347A.693.693,0,0,0,282.969,122.214Z" transform="translate(-259.25 -116.355)" fill="#00eed0"/>
      <path id="Conture_16649" data-name="Conture 16649" d="M397.625,122.778v3.347l-1.406.394L392,127.728v-4.275l4.725-1.35a.739.739,0,0,1,.619.113A.693.693,0,0,1,397.625,122.778Z" transform="translate(-373.625 -116.356)" fill="#00ccb2"/>
    </g>
  </g>
</svg>
