<svg xmlns="http://www.w3.org/2000/svg" width="30" height="26" viewBox="0 0 30 26">
  <g id="Group_63066" data-name="Group 63066" transform="translate(-436 -146)">
    <g id="martin-luther-king" transform="translate(407.321 148)">
      <g id="Group_62955" data-name="Group 62955" transform="translate(31.419)">
        <g id="Group_62947" data-name="Group 62947" transform="translate(0 10.153)">
          <g id="Group_62946" data-name="Group 62946">
            <g id="Group_62945" data-name="Group 62945">
              <g id="Group_62944" data-name="Group 62944">
                <g id="Group_62943" data-name="Group 62943">
                  <g id="Group_62942" data-name="Group 62942">
                    <path id="Conture_16536" data-name="Conture 16536" d="M102.973,255.356H87.143l1.233-9.015a1.953,1.953,0,0,1,1.336-1.594l3.091-1,2.255,7.837,2.255-7.837,3.091,1a1.952,1.952,0,0,1,1.336,1.594Z" transform="translate(-87.143 -242.479)" fill="#5b5555"/>
                    <path id="Conture_16537" data-name="Conture 16537" d="M355.409,270.065h-1.635l-1.233-9.773a1.948,1.948,0,0,0-.547-1.109l.847.273a1.952,1.952,0,0,1,1.336,1.594Z" transform="translate(-339.579 -257.187)" fill="#444"/>
                    <path id="Conture_16538" data-name="Conture 16538" d="M207.48,229.065l-.609,3.793-1.9,4.928-1.9-4.928-.609-3.793,2.51-.808Z" transform="translate(-197.055 -227.711)" fill="#efe2dd"/>
                    <g id="Group_62939" data-name="Group 62939" transform="translate(7.253 2.203)">
                      <path id="Conture_16539" data-name="Conture 16539" d="M243.2,269.165l-.662,2.3-.662-2.3.149-5.572h1.026Z" transform="translate(-241.876 -263.593)" fill="#21c1f8"/>
                    </g>
                    <g id="Group_62940" data-name="Group 62940" transform="translate(5.405 0.546)">
                      <path id="Conture_16540" data-name="Conture 16540" d="M204.967,228.257v1.811l-1.753,1.626-.757-2.629Z" transform="translate(-202.457 -228.257)" fill="#f8f3f1"/>
                      <path id="Conture_16541" data-name="Conture 16541" d="M258.507,229.065l-.756,2.629L256,230.068v-1.811Z" transform="translate(-253.488 -228.257)" fill="#f8f3f1"/>
                    </g>
                    <g id="Group_62941" data-name="Group 62941" transform="translate(6.433 0)">
                      <path id="Conture_16542" data-name="Conture 16542" d="M227.339,216.608v.875a1.482,1.482,0,0,1-2.965,0v-.875Z" transform="translate(-224.374 -216.608)" fill="#c86f5c"/>
                    </g>
                    <path id="Conture_16543" data-name="Conture 16543" d="M224.373,216.605v.875a1.484,1.484,0,0,0,.1.524,4.262,4.262,0,0,0,2.774,0,1.489,1.489,0,0,0,.1-.524v-.875h-2.964Z" transform="translate(-217.94 -216.605)" fill="#ba5d4f"/>
                  </g>
                </g>
              </g>
            </g>
          </g>
        </g>
        <path id="Conture_16544" data-name="Conture 16544" d="M256,254.224l3.821-4.858a.242.242,0,0,0-.009-.311l-.635-.714a.241.241,0,0,1,.008-.33l.595-.605a.242.242,0,0,0,.015-.323l-1.285-1.581Z" transform="translate(-248.082 -233.996)" fill="#756f6f"/>
        <path id="Conture_16545" data-name="Conture 16545" d="M177.253,254.224l-3.821-4.858a.242.242,0,0,1,.009-.311l.635-.714a.241.241,0,0,0-.008-.33l-.595-.605a.242.242,0,0,1-.015-.323l1.285-1.581Z" transform="translate(-169.338 -233.996)" fill="#756f6f"/>
        <g id="Group_62954" data-name="Group 62954" transform="translate(2.915)">
          <g id="Group_62948" data-name="Group 62948" transform="translate(0.813 0)">
            <path id="Conture_16546" data-name="Conture 16546" d="M175.063,6.462H166.69V3.2a3.2,3.2,0,0,1,3.2-3.2h1.97a3.2,3.2,0,0,1,3.2,3.2Z" transform="translate(-166.69 0)" fill="#9e9797"/></g>
          <g id="Group_62949" data-name="Group 62949" transform="translate(4.883)">
            <path id="Conture_16547" data-name="Conture 16547" d="M257.82,3.2v3.26h-1.1V3.2a3.2,3.2,0,0,0-3.2-3.2h1.1A3.2,3.2,0,0,1,257.82,3.2Z" transform="translate(-253.517)" fill="#8c8383"/>
          </g>
          <g id="Group_62950" data-name="Group 62950" transform="translate(0 5.67)">
            <path id="Conture_16548" data-name="Conture 16548" d="M328.6,122.927a.978.978,0,0,0,0-1.957h-.648v1.957h.648Z" transform="translate(-319.582 -120.97)" fill="#c86f5c"/>
            <path id="Conture_16549" data-name="Conture 16549" d="M150.315,122.927a.978.978,0,1,1,0-1.957h.648v1.957h-.648Z" transform="translate(-149.337 -120.97)" fill="#c86f5c"/>
          </g>
          <path id="Conture_16550" data-name="Conture 16550" d="M185.1,47.457a.242.242,0,0,1,.092.19V49.3a3.663,3.663,0,0,1-7.324,0V47.647a.241.241,0,0,1,.092-.19l.259-.2a.6.6,0,0,0,.227-.467V45.15a1.232,1.232,0,0,1,1.232-1.231h3.707a1.232,1.232,0,0,1,1.232,1.231v1.637a.6.6,0,0,0,.227.467Z" transform="translate(-176.534 -41.859)" fill="#d5887a"/>
          <path id="Conture_16551" data-name="Conture 16551" d="M249.751,47.456a.241.241,0,0,1,.092.19V49.3a3.721,3.721,0,0,1-3.662,3.615,3.539,3.539,0,0,1-.483-.033,3.732,3.732,0,0,0,3.179-3.582V47.645a.241.241,0,0,0-.092-.19l-.259-.2a.6.6,0,0,1-.227-.467V45.147a1.232,1.232,0,0,0-1.232-1.231h.966a1.232,1.232,0,0,1,1.232,1.231v1.637a.6.6,0,0,0,.227.467Z" transform="translate(-241.181 -41.857)" fill="#ce7c6e"/>
          <g id="Group_62953" data-name="Group 62953" transform="translate(3.169 6.039)">
            <g id="Group_62951" data-name="Group 62951">
              <path id="Conture_16552" data-name="Conture 16552" d="M217.314,129.837a.362.362,0,0,1-.362-.362v-.286a.362.362,0,0,1,.724,0v.286A.362.362,0,0,1,217.314,129.837Z" transform="translate(-216.952 -128.827)" fill="#5b5555"/>
            </g>
            <g id="Group_62952" data-name="Group 62952" transform="translate(2.936)">
              <path id="Conture_16553" data-name="Conture 16553" d="M279.958,129.837a.362.362,0,0,1-.362-.362v-.286a.362.362,0,0,1,.724,0v.286A.362.362,0,0,1,279.958,129.837Z" transform="translate(-279.596 -128.827)" fill="#5b5555"/>
            </g>
          </g>
        </g>
      </g>
      <g id="Group_62964" data-name="Group 62964" transform="translate(31.278 9.604)">
        <g id="Group_62959" data-name="Group 62959" transform="translate(0 0)">
          <g id="Group_62957" data-name="Group 62957" transform="translate(0 2.327)">
            <g id="Group_62956" data-name="Group 62956">
              <path id="Conture_16554" data-name="Conture 16554" d="M84.772,261.267a.575.575,0,0,1-.57-.505,13.6,13.6,0,0,1-.044-2.39,5.023,5.023,0,0,1,1.489-3.722.575.575,0,1,1,.712.9,4.068,4.068,0,0,0-1.053,2.9,12.551,12.551,0,0,0,.038,2.166.576.576,0,0,1-.572.646Z" transform="translate(-84.125 -254.527)" fill="#1faaee"/>
            </g>
          </g>
          <g id="Group_62958" data-name="Group 62958" transform="translate(0.9)">
            <path id="Conture_16555" data-name="Conture 16555" d="M104.485,208.3l-.811-.512a.727.727,0,0,1-.227-1l.989-1.567a.727.727,0,0,1,1-.227l.811.512a.727.727,0,0,1,.227,1l-.989,1.567A.727.727,0,0,1,104.485,208.3Z" transform="translate(-103.335 -204.884)" fill="#c9f0fd"/>
            <path id="Conture_16556" data-name="Conture 16556" d="M113.032,208.587l-.989,1.567a.727.727,0,0,1-1,.227l-.811-.512-.017-.011a.726.726,0,0,0,.985-.237l.989-1.567a.726.726,0,0,0-.21-.991l.017.01.811.512A.727.727,0,0,1,113.032,208.587Z" transform="translate(-109.89 -206.96)" fill="#9ce6fb"/>
          </g>
        </g>
        <g id="Group_62963" data-name="Group 62963" transform="translate(11.958)">
          <g id="Group_62961" data-name="Group 62961" transform="translate(1.702 2.327)">
            <g id="Group_62960" data-name="Group 62960"><path id="Conture_16557" data-name="Conture 16557" d="M377.352,261.267a.575.575,0,0,0,.57-.505,13.6,13.6,0,0,0,.044-2.39,5.023,5.023,0,0,0-1.489-3.722.575.575,0,1,0-.712.9,4.068,4.068,0,0,1,1.053,2.9,12.552,12.552,0,0,1-.038,2.166.576.576,0,0,0,.572.646Z" transform="translate(-375.546 -254.527)" fill="#1faaee"/>
            </g>
          </g>
          <g id="Group_62962" data-name="Group 62962">
            <path id="Conture_16558" data-name="Conture 16558" d="M340.388,205l-.811.512a.727.727,0,0,0-.227,1l.989,1.567a.727.727,0,0,0,1,.227l.811-.512a.727.727,0,0,0,.227-1l-.989-1.567A.727.727,0,0,0,340.388,205Z" transform="translate(-339.238 -204.883)" fill="#c9f0fd"/>
            <path id="Conture_16559" data-name="Conture 16559" d="M348.935,206.787l-.989-1.567a.727.727,0,0,0-1-.227l-.811.512-.017.011a.726.726,0,0,1,.985.237l.989,1.567a.726.726,0,0,1-.21.991l.017-.01.811-.512A.727.727,0,0,0,348.935,206.787Z" transform="translate(-345.793 -204.881)" fill="#9ce6fb"/>
          </g>
        </g>
      </g>
      <g id="Group_62965" data-name="Group 62965" transform="translate(29.995 18.454)">
        <path id="Conture_16560" data-name="Conture 16560" d="M75.441,393.679v5.063a.483.483,0,0,1-.483.483H57.245a.483.483,0,0,1-.483-.483v-5.063Z" transform="translate(-56.762 -393.679)" fill="#a34f41"/>
        <path id="Conture_16561" data-name="Conture 16561" d="M56.762,393.679v1.3h16.7a.725.725,0,0,1,.725.725v3.525h.772a.483.483,0,0,0,.483-.483v-5.063Z" transform="translate(-56.762 -393.679)" fill="#873f30"/>
      </g>
      <g id="Group_62969" data-name="Group 62969" transform="translate(32.046 18.78)">
        <g id="Group_62966" data-name="Group 62966">
          <path id="Conture_16562" data-name="Conture 16562" d="M102.07,402.881h-.884a.485.485,0,0,1-.482-.432l-.2-1.806h2.238l-.2,1.806A.485.485,0,0,1,102.07,402.881Z" transform="translate(-100.509 -400.643)" fill="#fcb44d"/>
          <path id="Conture_16563" data-name="Conture 16563" d="M100.513,400.647h2.238l-.105.969h-2.029Z" transform="translate(-100.513 -400.647)" fill="#fb9927"/>
        </g>
        <g id="Group_62967" data-name="Group 62967" transform="translate(6.169)">
          <path id="Conture_16564" data-name="Conture 16564" d="M233.685,402.881H232.8a.485.485,0,0,1-.482-.432l-.2-1.806h2.238l-.2,1.806A.485.485,0,0,1,233.685,402.881Z" transform="translate(-232.124 -400.643)" fill="#fcb44d"/>
          <path id="Conture_16565" data-name="Conture 16565" d="M232.129,400.647h2.238l-.1.969h-2.029Z" transform="translate(-232.129 -400.647)" fill="#fb9927"/>
        </g>
        <g id="Group_62968" data-name="Group 62968" transform="translate(12.339)">
          <path id="Conture_16566" data-name="Conture 16566" d="M365.3,402.881h-.884a.485.485,0,0,1-.482-.432l-.2-1.806h2.238l-.2,1.806A.485.485,0,0,1,365.3,402.881Z" transform="translate(-363.74 -400.643)" fill="#fcb44d"/>
          <path id="Conture_16567" data-name="Conture 16567" d="M365.973,400.647l-.1.969H363.84l-.105-.969Z" transform="translate(-363.735 -400.647)" fill="#fb9927"/>
        </g>
      </g>
      <g id="Group_62970" data-name="Group 62970" transform="translate(28.679 17.032)">
        <path id="Conture_16568" data-name="Conture 16568" d="M49.506,365.09H29.164a.485.485,0,0,1-.485-.485v-.779a.485.485,0,0,1,.485-.485H49.506a.485.485,0,0,1,.485.485v.779a.485.485,0,0,1-.485.485Z" transform="translate(-28.679 -363.342)" fill="#ba5d4f"/>
        <path id="Conture_16569" data-name="Conture 16569" d="M447.952,363.832v.779a.484.484,0,0,1-.485.485h-1.255a.485.485,0,0,0,.485-.485v-.779a.484.484,0,0,0-.485-.485h1.255A.484.484,0,0,1,447.952,363.832Z" transform="translate(-426.641 -363.347)" fill="#a34f41"/>
      </g>
    </g>
  </g>
</svg>
