<svg xmlns="http://www.w3.org/2000/svg" width="15" height="14.924" viewBox="0 0 15 14.924">
  <g id="Group_164" data-name="Group 164" transform="translate(-46 -590)">
    <g id="Group_152" data-name="Group 152" transform="translate(-51 367.589)">
      <path id="Conture_80" data-name="Conture 80" d="M110.844,269.181a.373.373,0,0,0-.373.374v3.317a1.122,1.122,0,0,1-1.121,1.121H98.868a1.122,1.122,0,0,1-1.121-1.121v-9.735a1.122,1.122,0,0,1,1.121-1.121h3.317a.374.374,0,0,0,0-.747H98.868A1.87,1.87,0,0,0,97,263.137v9.735a1.87,1.87,0,0,0,1.868,1.868H109.35a1.87,1.87,0,0,0,1.868-1.868v-3.317A.373.373,0,0,0,110.844,269.181Z" transform="translate(0 -37.405)" fill="#3f3e48"/>
      <path id="Conture_81" data-name="Conture 81" d="M215.516,223.341l-.438-.438a1.681,1.681,0,0,0-2.377,0l-6.665,6.665a.374.374,0,0,0-.1.164l-.876,3.164a.373.373,0,0,0,.46.46l3.164-.877a.374.374,0,0,0,.165-.1l6.665-6.665A1.683,1.683,0,0,0,215.516,223.341Zm-9.557,9.119.539-1.944,1.405,1.406Zm2.649-.89-1.759-1.759,5.455-5.455,1.759,1.759Zm6.379-6.379-.4.4-1.759-1.759.4-.4a.934.934,0,0,1,1.321,0l.438.438A.935.935,0,0,1,214.987,225.191Z" transform="translate(-104.007 0)" fill="#3f3e48"/>
    </g>
  </g>
</svg>
