<svg xmlns="http://www.w3.org/2000/svg" width="20" height="18.873" viewBox="0 0 20 18.873">
  <path id="Konture_16573" data-name="Konture 16573" d="M298.071,789.79v-3a.749.749,0,0,0-.631-.74,9.18,9.18,0,0,0-4.377.44,11.472,11.472,0,0,0-5.563,4.431,10.679,10.679,0,0,1,.2-2.14,9.764,9.764,0,0,1,3.442-5.756l.047-.041c.052-.049,1.958-1.77,6.123-1.738h.005a.751.751,0,0,0,.751-.751v-2.937l6.118,6.087Zm-.221-14.571a.75.75,0,0,0-1.28.531v4a10.253,10.253,0,0,0-6.392,2.12,11.379,11.379,0,0,0-3.947,6.612,11.662,11.662,0,0,0-.134,3.81v.005l.005.033.159.917a.75.75,0,0,0,1.382.257l.478-.8a10.533,10.533,0,0,1,5.438-4.808,7.863,7.863,0,0,1,3.01-.442v4.147a.751.751,0,0,0,1.283.529l7.928-7.969a.749.749,0,0,0,0-1.061Z" transform="translate(-286 -775)" fill="#171717"/>
</svg>
