<svg id="share-option" xmlns="http://www.w3.org/2000/svg" width="13.191" height="11.777" viewBox="0 0 13.191 11.777">
  <path id="Контур_16482" data-name="Контур 16482" d="M13.051,31.317,9.282,27.548a.471.471,0,0,0-.8.331v1.884H6.831q-5.249,0-6.441,2.966A6.7,6.7,0,0,0,0,35.181,8.839,8.839,0,0,0,.935,38.5l.077.177q.055.125.1.221a.837.837,0,0,0,.1.162.252.252,0,0,0,.206.125.215.215,0,0,0,.173-.074.274.274,0,0,0,.062-.184,1.5,1.5,0,0,0-.018-.2,1.523,1.523,0,0,1-.018-.173q-.037-.5-.037-.905A6.266,6.266,0,0,1,1.7,36.322,4,4,0,0,1,2.061,35.3a2.561,2.561,0,0,1,.589-.743,3.455,3.455,0,0,1,.776-.512,4.21,4.21,0,0,1,.979-.313,9.334,9.334,0,0,1,1.134-.158q.571-.044,1.292-.044H8.48v1.884a.468.468,0,0,0,.8.331l3.769-3.769a.463.463,0,0,0,0-.663Z" transform="translate(0 -27.408)" fill="#929292"/>
</svg>
