<svg xmlns="http://www.w3.org/2000/svg" width="30" height="25" viewBox="0 0 30 25">
  <g id="Group_63072" data-name="Group 63072" transform="translate(-433 -452)">
    <g id="basketball-ball" transform="translate(433 453)">
      <circle id="Эллипс_61" data-name="Эллипс 61" cx="12" cy="12" r="12" fill="#dc691d"/>
      <g id="Group_63031" data-name="Group 63031" transform="translate(2.896 16.551)">
        <path id="Conture_16650" data-name="Conture 16650" d="M135.3,425.794a.418.418,0,0,1-.134-.022,11.552,11.552,0,0,1-2.575-1.286.414.414,0,1,1,.451-.694,10.748,10.748,0,0,0,2.39,1.2.414.414,0,0,1-.133.805Z" transform="translate(-129.097 -420.414)" fill="#ef9665"/>
        <path id="Conture_16651" data-name="Conture 16651" d="M63.446,355.572a.413.413,0,0,1-.323-.155c-.093-.115-.195-.237-.3-.362a7.668,7.668,0,0,1-.988-1.366.414.414,0,1,1,.739-.372,7.115,7.115,0,0,0,.882,1.205c.11.13.216.257.312.377a.414.414,0,0,1-.322.673Z" transform="translate(-61.79 -353.088)" fill="#ef9665"/>
      </g>
      <g id="Group_63032" data-name="Group 63032" transform="translate(0.611 0.281)">
        <path id="Conture_16652" data-name="Conture 16652" d="M56.124,79.448h-.037q-.378.4-.72.827h.757c5.476,0,9.931,5.29,9.931,11.793a13.107,13.107,0,0,1-2.035,7.415l-.136.2c.293.022.589.036.888.036l.073,0a14.05,14.05,0,0,0,2.038-7.654C66.882,85.11,62.056,79.448,56.124,79.448Z" transform="translate(-53.382 -76.005)" fill="#c5411e"/>
        <path id="Conture_16653" data-name="Conture 16653" d="M175.072,5.994a12.011,12.011,0,0,0-1.274.355l.389.162c5.537,2.229,9.258,9.142,9.258,17.2a24.16,24.16,0,0,1-.4,3.811l-.226,1.021c.33-.158.651-.331.964-.517l.071-.319.009-.054a24.765,24.765,0,0,0,.411-3.942C184.272,15.595,180.6,8.574,175.072,5.994Z" transform="translate(-166.262 -5.994)" fill="#c5411e"/>
        <path id="Conture_16654" data-name="Conture 16654" d="M418.817,75.89c-1.851-1.18-3.094-4.685-3.094-8.738a16.876,16.876,0,0,1,.338-3.385q-.351-.362-.731-.693l-.032.274a17.62,17.62,0,0,0-.4,3.8c0,4.412,1.376,8.123,3.5,9.454a.412.412,0,0,0,.048.026l.1.045q.157-.382.288-.778Z" transform="translate(-396.059 -60.398)" fill="#c5411e"/>
        <path id="Conture_16655" data-name="Conture 16655" d="M36.065,177.4c-.069-.279-.149-.554-.238-.826-9.442-.051-17.11,2.469-22.8,7.5.094.281.195.559.308.831l.184-.163c5.571-4.959,13.135-7.428,22.483-7.344Z" transform="translate(-13.03 -168.575)" fill="#c5411e"/>
      </g>
    </g>
  </g>
</svg>
