<svg xmlns="http://www.w3.org/2000/svg" width="21.149" height="20.23" viewBox="0 0 21.149 20.23">
  <path id="star" d="M22,9.67A1,1,0,0,0,21.14,9l-5.69-.83L12.9,3a1,1,0,0,0-1.8,0L8.55,8.16,2.86,9a.985.985,0,0,0-.56,1.68l4.13,4-1,5.68a1,1,0,0,0,1.45,1.07L12,18.76l5.1,2.68a.93.93,0,0,0,.46.12,1.005,1.005,0,0,0,.99-1.19l-1-5.68,4.13-4A1,1,0,0,0,22,9.67Zm-6.15,4a1,1,0,0,0-.29.89l.72,4.19-3.76-2a1,1,0,0,0-.94,0l-3.76,2,.72-4.19a1,1,0,0,0-.29-.89l-3-3,4.21-.61a1,1,0,0,0,.76-.55L12,5.7l1.88,3.82a1,1,0,0,0,.76.55l4.21.61Z" transform="translate(-1.446 -1.886)" fill="#3f3e48" stroke="#fafafa" stroke-width="1.1"/>
</svg>
