<svg xmlns="http://www.w3.org/2000/svg" width="30" height="25" viewBox="0 0 30 25">
  <g id="Group_63074" data-name="Group 63074" transform="translate(-440 -95)">
    <g id="trending-2" data-name="trending" transform="translate(440 96)">
      <path id="Conture_16532" data-name="Conture 16532" d="M13.355,6.232a.7.7,0,0,0-1.3.364,1.556,1.556,0,1,1-3.112,0V.7a.7.7,0,0,0-1.2-.5A34.38,34.38,0,0,0,3.884,5.02,27.308,27.308,0,0,0,1.227,9.974,15.7,15.7,0,0,0,0,15.766a8.234,8.234,0,0,0,16.469,0,18.786,18.786,0,0,0-3.114-9.533Zm0,0" transform="translate(0 0)" fill="#ff9f00"/>
      <path id="Conture_16533" data-name="Conture 16533" d="M180.788,6.24a.7.7,0,0,0-1.3.364,1.556,1.556,0,0,1-3.112,0V.71a.7.7,0,0,0-.7-.7v24a8.244,8.244,0,0,0,8.234-8.234,18.788,18.788,0,0,0-3.114-9.533Zm0,0" transform="translate(-167.434 -0.007)" fill="#ff641a"/>
      <path id="Conture_16534" data-name="Conture 16534" d="M75.067,253.168H72.054a.7.7,0,0,0,0,1.406h1.315l-3,3-1.633-1.633a.7.7,0,0,0-.994,0l-1.6,1.6a.7.7,0,0,0,.994.994l1.1-1.1,1.633,1.633a.7.7,0,0,0,.994,0l3.5-3.5v1.315a.7.7,0,0,0,1.406,0v-3.012a.7.7,0,0,0-.7-.7Zm0,0" transform="translate(-62.844 -241.301)" fill="#141414"/>
      <path id="Conture_16535" data-name="Conture 16535" d="M179.657,253.168h-3.013a.7.7,0,0,0,0,1.406h1.315l-2.291,2.291v1.989l3.286-3.285v1.315a.7.7,0,0,0,1.406,0v-3.012A.7.7,0,0,0,179.657,253.168Zm0,0" transform="translate(-167.434 -241.301)" fill="#141414"/>
    </g>
  </g>
</svg>
