<svg xmlns="http://www.w3.org/2000/svg" width="22" height="22" viewBox="0 0 22 22">
  <g id="Twitter_2_" transform="translate(0)">
    <path id="Twitter_3_" d="M245.834,431.461a3.487,3.487,0,0,1-1.333.505,2.067,2.067,0,0,0-1.516-.666,2.109,2.109,0,0,0-2.091,2.137,3.429,3.429,0,0,0,.046.482,5.835,5.835,0,0,1-4.274-2.229,2.1,2.1,0,0,0-.276,1.08,2.306,2.306,0,0,0,.919,1.792,1.951,1.951,0,0,1-.942-.276v.023a2.1,2.1,0,0,0,1.677,2.091,1.977,1.977,0,0,1-.551.092,2.1,2.1,0,0,1-.391-.023,2.119,2.119,0,0,0,1.953,1.493,4.093,4.093,0,0,1-2.573.919,3.4,3.4,0,0,1-.482-.023,5.8,5.8,0,0,0,3.194.942,5.982,5.982,0,0,0,5.928-6.066v-.276a3.947,3.947,0,0,0,1.034-1.1,3.7,3.7,0,0,1-1.195.322A2.721,2.721,0,0,0,245.834,431.461Z" transform="translate(-230.44 -424.867)" fill="#f1796c"/>
    <path id="Conture_16596" data-name="Conture 16596" d="M222.507,424.714a10.707,10.707,0,1,1,10.707-10.707A10.718,10.718,0,0,1,222.507,424.714Zm0-20.586a9.88,9.88,0,1,0,9.88,9.88A9.894,9.894,0,0,0,222.507,404.127Z" transform="translate(-211.8 -403.3)" fill="#f1796c"/>
  </g>
</svg>
